<svg id="Layer_1" data-name="Layer 1" xmlns="http://www.w3.org/2000/svg" viewBox="0 0 1936.5 170.5165" xmlns:xlink="http://www.w3.org/1999/xlink"><defs><style>.cls-1{fill:#2362af;}.cls-2{fill:#326db6;}.cls-3{fill:#1756a4;}.cls-4{fill:#336cb5;}.cls-5{fill:#fff;}.cls-6{fill:#19569d;}.cls-7{fill:#225fa7;}.cls-8{fill:#19569e;}.cls-9{fill:#2b67af;}</style></defs><title>Weather widget Page Background</title><path class="cls-1" d="M1238.8952,1077.1694c-.7137-31.749-61.3891-78.85-123.861-74.5209-31.2587,2.1659-77.1869,31.41-101.5318,74.5209Z" transform="translate(-31.4947 -914.8397)"></path><path class="cls-2" d="M1750.3492,1050.3c-15.1959-15.8491-97.204-108.0627-165.0988-112.3061-40.41-2.5256-89.74,44.9885-103.28,86.4861a188.4356,188.4356,0,0,0-6.7228,25.82Z" transform="translate(-31.4947 -914.8397)"></path><path class="cls-3" d="M365.01,1050.3c-9.8457-29.1654-37.4837-55.9487-86.7087-97.8218-23.9615-20.3828-37.16-28.0647-52.8993-27.2893-5.8746.2894-19.2141,2.1073-52.4795,34.0067-33.13,31.77-49.6956,47.655-60.0365,75.99-1.2172,3.3351-3.0627,8.5145-4.7925,15.1141Z" transform="translate(-31.4947 -914.8397)"></path><path class="cls-2" d="M488.6033,1050.3c-5.1132-10.0428-13.1928-21.0248-25.6054-35.6433-40.3143-47.4789-71.9107-80.38-102.02-77.67-64.0686,5.7662-138.8868,76.5444-183.6208,113.313Z" transform="translate(-31.4947 -914.8397)"></path><path class="cls-4" d="M1215.96,1078.009c-8.3247-6.4018-19.2846-10.62-33.752-11.5454-144.4235-9.2365-176.3412-82.02-256.52-83.5473-88.1655-1.6794-197.6825,76.2592-211.5973,89.0051a25.7846,25.7846,0,0,0-4.9043,6.0876Z" transform="translate(-31.4947 -914.8397)"></path><path class="cls-5" d="M1839.0411,954.9971c-111.9023,21.5459-127.9134,80.2314-228.6006,83.1276-127.3719,3.6636-126.91-92.9778-253.161-94.4631-158.8937-1.8694-151.3614,123.88-385.4392,126.5328-234.0778-2.6526-226.5456-128.4022-385.4393-126.5328-126.2514,1.4853-125.7892,98.1267-253.161,94.4631-100.6871-2.8962-116.6982-61.5817-228.6006-83.1276a398.3374,398.3374,0,0,0-73.1447-6.9292v137.2883h1936.5v-134.04C1924.5685,946.0835,1880.2629,947.06,1839.0411,954.9971Z" transform="translate(-31.4947 -914.8397)"></path><rect class="cls-6" x="51.1505" y="36.1868" width="6.6262" height="17.6971"></rect><rect class="cls-6" x="54.4642" y="36.1868" width="3.3129" height="17.6959"></rect><path class="cls-7" d="M85.0387,934.8907,68.7263,956.712a1.1488,1.1488,0,0,0,.92,1.8366h32.6248a1.1488,1.1488,0,0,0,.92-1.8366L86.8789,934.8907A1.1487,1.1487,0,0,0,85.0387,934.8907Z" transform="translate(-31.4947 -914.8397)"></path><path class="cls-8" d="M102.2717,958.5484H85.9589V934.43a1.1438,1.1438,0,0,1,.92.4607l6.08,8.1341,10.2316,13.687A1.1486,1.1486,0,0,1,102.2717,958.5484Z" transform="translate(-31.4947 -914.8397)"></path><path class="cls-9" d="M85.2185,924.2884l-12.9918,16.887a1.1487,1.1487,0,0,0,.9105,1.8492H99.1207a1.1488,1.1488,0,0,0,.91-1.8492l-12.9919-16.887A1.1485,1.1485,0,0,0,85.2185,924.2884Z" transform="translate(-31.4947 -914.8397)"></path><path class="cls-7" d="M99.1208,943.0244H85.9587V923.8523a1.1451,1.1451,0,0,1,1.0809.4365l2.8086,3.6506,10.1834,13.2356A1.1491,1.1491,0,0,1,99.1208,943.0244Z" transform="translate(-31.4947 -914.8397)"></path><path class="cls-9" d="M85.04,915.3l-8.0941,10.8027a1.1488,1.1488,0,0,0,.9192,1.8376H94.0528a1.1487,1.1487,0,0,0,.9193-1.8376L86.8781,915.3A1.1486,1.1486,0,0,0,85.04,915.3Z" transform="translate(-31.4947 -914.8397)"></path><rect class="cls-6" x="878.2315" y="58.3509" width="6.7281" height="17.9694"></rect><rect class="cls-6" x="881.5961" y="58.3509" width="3.3638" height="17.9681"></rect><path class="cls-7" d="M912.1565,956.8065l-16.5634,22.1571a1.1664,1.1664,0,0,0,.9343,1.8648h33.1267a1.1665,1.1665,0,0,0,.9343-1.8648L914.025,956.8065A1.1665,1.1665,0,0,0,912.1565,956.8065Z" transform="translate(-31.4947 -914.8397)"></path><path class="cls-8" d="M929.6547,980.8282H913.0908v-24.49a1.1617,1.1617,0,0,1,.9342.4678l6.1737,8.2592,10.389,13.8976A1.1662,1.1662,0,0,1,929.6547,980.8282Z" transform="translate(-31.4947 -914.8397)"></path><path class="cls-9" d="M912.339,946.0411l-13.1916,17.1468a1.1664,1.1664,0,0,0,.9245,1.8777h26.3832a1.1664,1.1664,0,0,0,.9245-1.8777l-13.1917-17.1468A1.1662,1.1662,0,0,0,912.339,946.0411Z" transform="translate(-31.4947 -914.8397)"></path><path class="cls-7" d="M926.4553,965.0654H913.0907v-19.467a1.1624,1.1624,0,0,1,1.0975.4432l2.8518,3.7068,10.34,13.4392A1.1668,1.1668,0,0,1,926.4553,965.0654Z" transform="translate(-31.4947 -914.8397)"></path><path class="cls-9" d="M912.1573,936.9141l-8.2186,10.969a1.1664,1.1664,0,0,0,.9334,1.8658h16.4372a1.1664,1.1664,0,0,0,.9334-1.8658l-8.2185-10.969A1.1664,1.1664,0,0,0,912.1573,936.9141Z" transform="translate(-31.4947 -914.8397)"></path><rect class="cls-6" x="1102.9973" y="84.8556" width="3.4977" height="9.3415"></rect><rect class="cls-6" x="1104.7464" y="84.8556" width="1.7487" height="9.3409"></rect><path class="cls-7" d="M1135.7554,991.1778l-8.6106,11.5186a.6064.6064,0,0,0,.4857.9694h17.2211a.6064.6064,0,0,0,.4857-.9694l-8.6106-11.5186A.6064.6064,0,0,0,1135.7554,991.1778Z" transform="translate(-31.4947 -914.8397)"></path><path class="cls-8" d="M1144.8519,1003.6657h-8.6108V990.9346a.6037.6037,0,0,1,.4856.2432l3.21,4.2936,5.4008,7.2247A.6063.6063,0,0,1,1144.8519,1003.6657Z" transform="translate(-31.4947 -914.8397)"></path><path class="cls-9" d="M1135.85,985.5814l-6.8578,8.9138a.6064.6064,0,0,0,.4806.9762h13.7155a.6064.6064,0,0,0,.4806-.9762l-6.8578-8.9138A.6062.6062,0,0,0,1135.85,985.5814Z" transform="translate(-31.4947 -914.8397)"></path><path class="cls-7" d="M1143.1887,995.4713h-6.9477v-10.12a.6045.6045,0,0,1,.5706.23l1.4825,1.927,5.3754,6.9865A.6066.6066,0,0,1,1143.1887,995.4713Z" transform="translate(-31.4947 -914.8397)"></path><path class="cls-9" d="M1135.7558,980.8366l-4.2725,5.7023a.6064.6064,0,0,0,.4852.97h8.545a.6064.6064,0,0,0,.4853-.97l-4.2725-5.7023A.6063.6063,0,0,0,1135.7558,980.8366Z" transform="translate(-31.4947 -914.8397)"></path><rect class="cls-6" x="1420.2488" y="65.5299" width="6.4255" height="17.1612"></rect><rect class="cls-6" x="1423.4621" y="65.5299" width="3.2125" height="17.1601"></rect><path class="cls-7" d="M1454.0645,964.7224,1438.246,985.883a1.1139,1.1139,0,0,0,.8923,1.7809h31.6369a1.114,1.114,0,0,0,.8922-1.7809l-15.8185-21.1606A1.1139,1.1139,0,0,0,1454.0645,964.7224Z" transform="translate(-31.4947 -914.8397)"></path><path class="cls-8" d="M1470.7757,987.6637h-15.8189V964.2755a1.1089,1.1089,0,0,1,.8921.4468l5.8961,7.8877,9.9218,13.2725A1.1138,1.1138,0,0,1,1470.7757,987.6637Z" transform="translate(-31.4947 -914.8397)"></path><path class="cls-9" d="M1454.2388,954.4411,1441.64,970.8168a1.114,1.114,0,0,0,.8829,1.7932H1467.72a1.114,1.114,0,0,0,.8829-1.7932l-12.5985-16.3757A1.1137,1.1137,0,0,0,1454.2388,954.4411Z" transform="translate(-31.4947 -914.8397)"></path><path class="cls-7" d="M1467.72,972.61h-12.7635V954.0183a1.11,1.11,0,0,1,1.0481.4232l2.7235,3.54,9.8751,12.8348A1.1143,1.1143,0,0,1,1467.72,972.61Z" transform="translate(-31.4947 -914.8397)"></path><path class="cls-9" d="M1454.0652,945.7246l-7.849,10.4757a1.114,1.114,0,0,0,.8915,1.7819h15.698a1.1139,1.1139,0,0,0,.8914-1.7819l-7.8489-10.4757A1.114,1.114,0,0,0,1454.0652,945.7246Z" transform="translate(-31.4947 -914.8397)"></path><rect class="cls-6" x="1861.2852" y="26.1063" width="3.8467" height="10.2738"></rect><rect class="cls-6" x="1863.2089" y="26.1063" width="1.9232" height="10.2731"></rect><path class="cls-7" d="M1894.1694,931.5785l-9.47,12.6681a.6669.6669,0,0,0,.5341,1.0662h18.94a.667.667,0,0,0,.5342-1.0662l-9.47-12.6681A.6669.6669,0,0,0,1894.1694,931.5785Z" transform="translate(-31.4947 -914.8397)"></path><path class="cls-8" d="M1904.1738,945.3126h-9.47V931.311a.6639.6639,0,0,1,.5341.2675l3.53,4.7221,5.94,7.9457A.6668.6668,0,0,1,1904.1738,945.3126Z" transform="translate(-31.4947 -914.8397)"></path><path class="cls-9" d="M1894.2738,925.4235l-7.5422,9.8035a.6669.6669,0,0,0,.5286,1.0736h15.0843a.6669.6669,0,0,0,.5286-1.0736l-7.5423-9.8035A.6667.6667,0,0,0,1894.2738,925.4235Z" transform="translate(-31.4947 -914.8397)"></path><path class="cls-7" d="M1902.3446,936.3h-7.6411V925.17a.6647.6647,0,0,1,.6275.2534l1.63,2.1193,5.9118,7.6837A.6671.6671,0,0,1,1902.3446,936.3Z" transform="translate(-31.4947 -914.8397)"></path><path class="cls-9" d="M1894.17,920.2053l-4.6989,6.2713a.6669.6669,0,0,0,.5336,1.0668h9.3978a.6669.6669,0,0,0,.5337-1.0668l-4.6988-6.2713A.6668.6668,0,0,0,1894.17,920.2053Z" transform="translate(-31.4947 -914.8397)"></path><rect class="cls-6" x="916.7437" y="63.363" width="3.4977" height="9.3415"></rect><rect class="cls-6" x="918.4928" y="63.363" width="1.7487" height="9.3409"></rect><path class="cls-7" d="M949.5018,969.6852l-8.6107,11.5186a.6064.6064,0,0,0,.4857.9694H958.598a.6064.6064,0,0,0,.4857-.9694l-8.6106-11.5186A.6064.6064,0,0,0,949.5018,969.6852Z" transform="translate(-31.4947 -914.8397)"></path><path class="cls-8" d="M958.5983,982.1731h-8.6109V969.442a.6038.6038,0,0,1,.4857.2432l3.2094,4.2936,5.4008,7.2247A.6063.6063,0,0,1,958.5983,982.1731Z" transform="translate(-31.4947 -914.8397)"></path><path class="cls-9" d="M949.5966,964.0888l-6.8577,8.9138a.6064.6064,0,0,0,.4806.9762H956.935a.6064.6064,0,0,0,.4806-.9762l-6.8578-8.9138A.6063.6063,0,0,0,949.5966,964.0888Z" transform="translate(-31.4947 -914.8397)"></path><path class="cls-7" d="M956.9351,973.9787h-6.9477v-10.12a.6044.6044,0,0,1,.5705.23l1.4826,1.927,5.3753,6.9865A.6065.6065,0,0,1,956.9351,973.9787Z" transform="translate(-31.4947 -914.8397)"></path><path class="cls-9" d="M949.5022,959.344l-4.2726,5.7023a.6064.6064,0,0,0,.4853.97h8.545a.6063.6063,0,0,0,.4852-.97l-4.2724-5.7023A.6063.6063,0,0,0,949.5022,959.344Z" transform="translate(-31.4947 -914.8397)"></path><rect class="cls-6" x="300.1567" y="22.9951" width="3.4977" height="9.3415"></rect><rect class="cls-6" x="301.9058" y="22.9951" width="1.7487" height="9.3409"></rect><path class="cls-7" d="M332.9148,929.3174l-8.6106,11.5185a.6064.6064,0,0,0,.4857.9695H342.011a.6064.6064,0,0,0,.4857-.9695l-8.6106-11.5185A.6064.6064,0,0,0,332.9148,929.3174Z" transform="translate(-31.4947 -914.8397)"></path><path class="cls-8" d="M342.0113,941.8053h-8.6108V929.0742a.6037.6037,0,0,1,.4856.2432l3.2095,4.2936,5.4008,7.2247A.6063.6063,0,0,1,342.0113,941.8053Z" transform="translate(-31.4947 -914.8397)"></path><path class="cls-9" d="M333.01,923.7209l-6.8578,8.9139a.6064.6064,0,0,0,.4806.9762H340.348a.6064.6064,0,0,0,.4806-.9762l-6.8578-8.9139A.6063.6063,0,0,0,333.01,923.7209Z" transform="translate(-31.4947 -914.8397)"></path><path class="cls-7" d="M340.3481,933.6109H333.4v-10.12a.6044.6044,0,0,1,.57.23l1.4826,1.927,5.3753,6.9865A.6065.6065,0,0,1,340.3481,933.6109Z" transform="translate(-31.4947 -914.8397)"></path><path class="cls-9" d="M332.9152,918.9762l-4.2725,5.7023a.6064.6064,0,0,0,.4852.97h8.545a.6064.6064,0,0,0,.4853-.97l-4.2725-5.7023A.6063.6063,0,0,0,332.9152,918.9762Z" transform="translate(-31.4947 -914.8397)"></path></svg>